<svg width="22" height="18" viewBox="0 0 22 18" fill="none" xmlns="http://www.w3.org/2000/svg">
<path d="M6.44643 7.92857H15.6071C15.6179 7.92857 15.6312 7.92857 15.642 7.92589C15.7598 7.90714 15.8375 7.79732 15.8187 7.67946L14.742 1.0366C14.7259 0.93214 14.6348 0.85714 14.5304 0.85714H7.52321C7.41875 0.85714 7.32768 0.93214 7.3116 1.0366L6.23482 7.67946C6.23214 7.69018 6.23214 7.70357 6.23214 7.71428C6.23214 7.83214 6.32857 7.92857 6.44643 7.92857ZM8.88928 2.67857H13.1616L13.7161 6.10714H8.33214L8.88928 2.67857V2.67857ZM8.95625 10.2509C8.94018 10.1464 8.8491 10.0714 8.74464 10.0714H1.7375C1.63303 10.0714 1.54196 10.1464 1.52589 10.2509L0.449105 16.8937C0.446426 16.9045 0.446426 16.9179 0.446426 16.9286C0.446426 17.0464 0.542855 17.1429 0.660712 17.1429H9.82143C9.83214 17.1429 9.84553 17.1429 9.85625 17.1402C9.9741 17.1214 10.0518 17.0116 10.033 16.8937L8.95625 10.2509V10.2509ZM2.5491 15.3214L3.10357 11.8929H7.37589L7.93035 15.3214H2.5491ZM21.5509 16.8937L20.4741 10.2509C20.458 10.1464 20.367 10.0714 20.2625 10.0714H13.2554C13.1509 10.0714 13.0598 10.1464 13.0437 10.2509L11.967 16.8937C11.9643 16.9045 11.9643 16.9179 11.9643 16.9286C11.9643 17.0464 12.0607 17.1429 12.1786 17.1429H21.3393C21.35 17.1429 21.3634 17.1429 21.3741 17.1402C21.4893 17.1214 21.5696 17.0116 21.5509 16.8937V16.8937ZM14.067 15.3214L14.6214 11.8929H18.8937L19.4482 15.3214H14.067Z" fill="white"/>
</svg>
